<svg id="SvgjsSvg1006" width="500" height="397.0703125" xmlns="http://www.w3.org/2000/svg" version="1.1" xmlns:xlink="http://www.w3.org/1999/xlink" xmlns:svgjs="http://svgjs.com/svgjs"><defs id="SvgjsDefs1007"><marker id="SvgjsMarker1050" markerWidth="14" markerHeight="10" refX="10" refY="5" viewBox="0 0 14 10" orient="auto" markerUnits="userSpaceOnUse" stroke-dasharray="0,0"><path id="SvgjsPath1051" d="M0,0 L14,5 L0,10 L0,0" fill="#323232" stroke="#323232" stroke-width="1"></path></marker><marker id="SvgjsMarker1058" markerWidth="14" markerHeight="10" refX="10" refY="5" viewBox="0 0 14 10" orient="auto" markerUnits="userSpaceOnUse" stroke-dasharray="0,0"><path id="SvgjsPath1059" d="M0,0 L14,5 L0,10 L0,0" fill="#323232" stroke="#323232" stroke-width="1"></path></marker><marker id="SvgjsMarker1066" markerWidth="14" markerHeight="10" refX="10" refY="5" viewBox="0 0 14 10" orient="auto" markerUnits="userSpaceOnUse" stroke-dasharray="0,0"><path id="SvgjsPath1067" d="M0,0 L14,5 L0,10 L0,0" fill="#323232" stroke="#323232" stroke-width="1"></path></marker><marker id="SvgjsMarker1070" markerWidth="14" markerHeight="10" refX="10" refY="5" viewBox="0 0 14 10" orient="auto" markerUnits="userSpaceOnUse" stroke-dasharray="0,0"><path id="SvgjsPath1071" d="M0,0 L14,5 L0,10 L0,0" fill="#323232" stroke="#323232" stroke-width="1"></path></marker><marker id="SvgjsMarker1074" markerWidth="14" markerHeight="10" refX="10" refY="5" viewBox="0 0 14 10" orient="auto" markerUnits="userSpaceOnUse" stroke-dasharray="0,0"><path id="SvgjsPath1075" d="M0,0 L14,5 L0,10 L0,0" fill="#323232" stroke="#323232" stroke-width="1"></path></marker></defs><g id="SvgjsG1008" transform="translate(25.83193899753104,27.072865072938782)"><path id="SvgjsPath1009" d="M 0 4Q 0 0 4 0L 444.72274850246896 0Q 448.72274850246896 0 448.72274850246896 4L 448.72274850246896 341.43115477475783Q 448.72274850246896 345.43115477475783 444.72274850246896 345.43115477475783L 4 345.43115477475783Q 0 345.43115477475783 0 341.43115477475783Z" stroke="rgba(50,50,50,1)" stroke-width="2" fill-opacity="1" fill="#ffffff"></path><g id="SvgjsG1010"><text id="SvgjsText1011" font-family="Arial" text-anchor="middle" font-size="13px" width="439px" fill="#323232" font-weight="400" align="middle" lineHeight="125%" anchor="middle" family="Arial" size="13px" weight="400" font-style="" opacity="1" y="15.048653912482699" transform="rotate(0)"></text></g></g><g id="SvgjsG1012" transform="translate(25.001116071428612,25.00372023809473)"><path id="SvgjsPath1013" d="M 0 4Q 0 0 4 0L 446.3843943546739 0Q 450.3843943546739 0 450.3843943546739 4L 450.3843943546739 44.00000000000006Q 450.3843943546739 48.00000000000006 446.3843943546739 48.00000000000006L 4 48.00000000000006Q 0 48.00000000000006 0 44.00000000000006Z" stroke="rgba(50,50,50,1)" stroke-width="2" fill-opacity="1" fill="#ffcccc"></path><g id="SvgjsG1014"><text id="SvgjsText1015" font-family="Arial" text-anchor="middle" font-size="18px" width="431px" fill="#323232" font-weight="700" align="middle" lineHeight="125%" anchor="middle" family="Arial" size="18px" weight="700" font-style="" opacity="1" y="8.250000000000028" transform="rotate(0)"><tspan id="SvgjsTspan1016" dy="22" x="225.5"><tspan id="SvgjsTspan1017" style="text-decoration:;">Service</tspan></tspan></text></g></g><g id="SvgjsG1018" transform="translate(41.40297809829053,101.20905747542349)"><path id="SvgjsPath1019" d="M 0 4Q 0 0 4 0L 140.1666666666669 0Q 144.1666666666669 0 144.1666666666669 4L 144.1666666666669 38.43055555555537Q 144.1666666666669 42.43055555555537 140.1666666666669 42.43055555555537L 4 42.43055555555537Q 0 42.43055555555537 0 38.43055555555537Z" stroke="rgba(50,50,50,1)" stroke-width="2" fill-opacity="1" fill="#e1bee7"></path><g id="SvgjsG1020"><text id="SvgjsText1021" font-family="Arial" text-anchor="middle" font-size="18px" width="125px" fill="#323232" font-weight="700" align="middle" lineHeight="125%" anchor="middle" family="Arial" size="18px" weight="700" font-style="" opacity="1" y="5.465277777777686" transform="rotate(0)"><tspan id="SvgjsTspan1022" dy="22" x="72.5"><tspan id="SvgjsTspan1023" style="text-decoration:;">Route</tspan></tspan></text></g></g><g id="SvgjsG1024" transform="translate(246.33246527777806,101.20905747542349)"><path id="SvgjsPath1025" d="M 0 4Q 0 0 4 0L 166.22222222222194 0Q 170.22222222222194 0 170.22222222222194 4L 170.22222222222194 38.43055555555543Q 170.22222222222194 42.43055555555543 166.22222222222194 42.43055555555543L 4 42.43055555555543Q 0 42.43055555555543 0 38.43055555555543Z" stroke="rgba(50,50,50,1)" stroke-width="2" fill-opacity="1" fill="#e1bee7"></path><g id="SvgjsG1026"><text id="SvgjsText1027" font-family="Arial" text-anchor="middle" font-size="18px" width="151px" fill="#323232" font-weight="700" align="middle" lineHeight="125%" anchor="middle" family="Arial" size="18px" weight="700" font-style="" opacity="1" y="5.465277777777715" transform="rotate(0)"><tspan id="SvgjsTspan1028" dy="22" x="85.5"><tspan id="SvgjsTspan1029" style="text-decoration:;">Configuration</tspan></tspan></text></g></g><g id="SvgjsG1030" transform="translate(264.33246527777806,178.57316468253998)"><path id="SvgjsPath1031" d="M 0 4Q 0 0 4 0L 140.1666666666669 0Q 144.1666666666669 0 144.1666666666669 4L 144.1666666666669 38.43055555555537Q 144.1666666666669 42.43055555555537 140.1666666666669 42.43055555555537L 4 42.43055555555537Q 0 42.43055555555537 0 38.43055555555537Z" stroke="rgba(50,50,50,1)" stroke-width="2" fill-opacity="1" fill="#bbdefb"></path><g id="SvgjsG1032"><text id="SvgjsText1033" font-family="Arial" text-anchor="middle" font-size="18px" width="125px" fill="#323232" font-weight="700" align="middle" lineHeight="125%" anchor="middle" family="Arial" size="18px" weight="700" font-style="" opacity="1" y="5.465277777777686" transform="rotate(0)"><tspan id="SvgjsTspan1034" dy="22" x="72.5"><tspan id="SvgjsTspan1035" style="text-decoration:;">Revision1</tspan></tspan></text></g></g><g id="SvgjsG1036" transform="translate(264.33246527777806,237.57316468253998)"><path id="SvgjsPath1037" d="M 0 4Q 0 0 4 0L 140.1666666666669 0Q 144.1666666666669 0 144.1666666666669 4L 144.1666666666669 38.43055555555537Q 144.1666666666669 42.43055555555537 140.1666666666669 42.43055555555537L 4 42.43055555555537Q 0 42.43055555555537 0 38.43055555555537Z" stroke="rgba(50,50,50,1)" stroke-width="2" fill-opacity="1" fill="#bbdefb"></path><g id="SvgjsG1038"><text id="SvgjsText1039" font-family="Arial" text-anchor="middle" font-size="18px" width="125px" fill="#323232" font-weight="700" align="middle" lineHeight="125%" anchor="middle" family="Arial" size="18px" weight="700" font-style="" opacity="1" y="5.465277777777686" transform="rotate(0)"><tspan id="SvgjsTspan1040" dy="22" x="72.5"><tspan id="SvgjsTspan1041" style="text-decoration:;">Revision2</tspan></tspan></text></g></g><g id="SvgjsG1042" transform="translate(264.33246527777806,296.57316468254)"><path id="SvgjsPath1043" d="M 0 4Q 0 0 4 0L 140.1666666666669 0Q 144.1666666666669 0 144.1666666666669 4L 144.1666666666669 38.43055555555537Q 144.1666666666669 42.43055555555537 140.1666666666669 42.43055555555537L 4 42.43055555555537Q 0 42.43055555555537 0 38.43055555555537Z" stroke="rgba(50,50,50,1)" stroke-width="2" fill-opacity="1" fill="#fff9c4"></path><g id="SvgjsG1044"><text id="SvgjsText1045" font-family="Arial" text-anchor="middle" font-size="18px" width="125px" fill="#323232" font-weight="700" align="middle" lineHeight="125%" anchor="middle" family="Arial" size="18px" weight="700" font-style="" opacity="1" y="5.465277777777686" transform="rotate(0)"><tspan id="SvgjsTspan1046" dy="22" x="72.5"><tspan id="SvgjsTspan1047" style="text-decoration:;">Revision3</tspan></tspan></text></g></g><g id="SvgjsG1048"><path id="SvgjsPath1049" d="M113.48631143162402 144.63961303097886L113.48631143162402 258.7884424603177L260.73246527777803 258.7884424603177" stroke="#323232" stroke-width="2" fill="none" marker-end="url(#SvgjsMarker1050)"></path><rect id="SvgjsRect1052" width="33" height="20" x="164.0546875" y="248.765625" fill="#ffffff"></rect><text id="SvgjsText1053" font-family="微软雅黑" text-anchor="middle" font-size="16px" width="33px" fill="#323232" font-weight="400" align="top" lineHeight="20px" anchor="middle" family="微软雅黑" size="16px" weight="400" font-style="" opacity="1" y="244.765625" transform="rotate(0)"><tspan id="SvgjsTspan1054" dy="20" x="180.5546875"><tspan id="SvgjsTspan1055" style="text-decoration:;">90%</tspan></tspan></text></g><g id="SvgjsG1056"><path id="SvgjsPath1057" d="M113.48631143162402 144.63961303097886L113.48631143162402 317.7884424603177L260.73246527777803 317.7884424603177" stroke="#323232" stroke-width="2" fill="none" marker-end="url(#SvgjsMarker1058)"></path><rect id="SvgjsRect1060" width="33" height="20" x="164.0546875" y="307.765625" fill="#ffffff"></rect><text id="SvgjsText1061" font-family="微软雅黑" text-anchor="middle" font-size="16px" width="33px" fill="#323232" font-weight="400" align="top" lineHeight="20px" anchor="middle" family="微软雅黑" size="16px" weight="400" font-style="" opacity="1" y="303.765625" transform="rotate(0)"><tspan id="SvgjsTspan1062" dy="20" x="180.5546875"><tspan id="SvgjsTspan1063" style="text-decoration:;">10%</tspan></tspan></text></g><g id="SvgjsG1064"><path id="SvgjsPath1065" d="M417.5546875 122.4243352532012L446.5546875 122.4243352532012L446.5546875 317.7884424603177L412.09913194444505 317.7884424603177" stroke-dasharray="8,5" stroke="#323232" stroke-width="2" fill="none" marker-end="url(#SvgjsMarker1066)"></path></g><g id="SvgjsG1068"><path id="SvgjsPath1069" d="M417.5546875 122.4243352532012L446.5546875 122.4243352532012L446.5546875 258.7884424603177L412.09913194444505 258.7884424603177" stroke-dasharray="8,5" stroke="#323232" stroke-width="2" fill="none" marker-end="url(#SvgjsMarker1070)"></path></g><g id="SvgjsG1072"><path id="SvgjsPath1073" d="M417.5546875 122.4243352532012L446.5546875 122.4243352532012L446.5546875 199.7884424603177L412.09913194444505 199.7884424603177" stroke-dasharray="8,5" stroke="#323232" stroke-width="2" fill="none" marker-end="url(#SvgjsMarker1074)"></path></g></svg>