<svg id="SvgjsSvg1006" width="1371.6953125" height="729.953125" xmlns="http://www.w3.org/2000/svg" version="1.1" xmlns:xlink="http://www.w3.org/1999/xlink" xmlns:svgjs="http://svgjs.com/svgjs"><defs id="SvgjsDefs1007"><pattern id="SvgjsPattern1016" x="0" y="0" width="540" height="424" patternUnits="userSpaceOnUse"><image id="SvgjsImage1017" xlink:href="https://cdn.processon.com/62b9d873e0b34d075b0fdb22?e=1656350339&amp;amp;token=trhI0BY8QfVrIGn9nENop6JAc6l5nZuxhjQ62UfM:hYyh8sJ8FPvChT_5TxMCTbtnBFE=" width="540" height="424" preserveAspectRatio="none" crossOrigin="anonymous" x="0" y="0"></image></pattern><marker id="SvgjsMarker1070" markerWidth="14" markerHeight="10" refX="10" refY="5" viewBox="0 0 14 10" orient="auto" markerUnits="userSpaceOnUse" stroke-dasharray="0,0"><path id="SvgjsPath1071" d="M0,0 L14,5 L0,10 L0,0" fill="#323232" stroke="#323232" stroke-width="1"></path></marker><marker id="SvgjsMarker1074" markerWidth="14" markerHeight="10" refX="10" refY="5" viewBox="0 0 14 10" orient="auto" markerUnits="userSpaceOnUse" stroke-dasharray="0,0"><path id="SvgjsPath1075" d="M0,0 L14,5 L0,10 L0,0" fill="#323232" stroke="#323232" stroke-width="1"></path></marker><marker id="SvgjsMarker1078" markerWidth="14" markerHeight="10" refX="10" refY="5" viewBox="0 0 14 10" orient="auto" markerUnits="userSpaceOnUse" stroke-dasharray="0,0"><path id="SvgjsPath1079" d="M0,0 L14,5 L0,10 L0,0" fill="#323232" stroke="#323232" stroke-width="1"></path></marker><marker id="SvgjsMarker1082" markerWidth="14" markerHeight="10" refX="10" refY="5" viewBox="0 0 14 10" orient="auto" markerUnits="userSpaceOnUse" stroke-dasharray="0,0"><path id="SvgjsPath1083" d="M0,0 L14,5 L0,10 L0,0" fill="#323232" stroke="#323232" stroke-width="1"></path></marker><marker id="SvgjsMarker1086" markerWidth="14" markerHeight="10" refX="10" refY="5" viewBox="0 0 14 10" orient="auto" markerUnits="userSpaceOnUse" stroke-dasharray="0,0"><path id="SvgjsPath1087" d="M0,0 L14,5 L0,10 L0,0" fill="#323232" stroke="#323232" stroke-width="1"></path></marker></defs><g id="SvgjsG1008" transform="translate(254.61538461538464,121)"><path id="SvgjsPath1009" d="M 0 4Q 0 0 4 0L 622.7692307692307 0Q 626.7692307692307 0 626.7692307692307 4L 626.7692307692307 472Q 626.7692307692307 476 622.7692307692307 476L 4 476Q 0 476 0 472Z" stroke-dasharray="10,6,3,6" stroke="rgba(158,158,158,1)" stroke-width="2" fill="none"></path><g id="SvgjsG1010"><text id="SvgjsText1011" font-family="微软雅黑" text-anchor="start" font-size="24px" width="607px" fill="#323232" font-weight="400" align="bottom" lineHeight="125%" anchor="start" family="微软雅黑" size="24px" weight="400" font-style="" opacity="1" y="440" transform="rotate(0)"><tspan id="SvgjsTspan1012" dy="30" x="10"><tspan id="SvgjsTspan1013" style="text-decoration:;">Controller pod</tspan></tspan></text></g></g><g id="SvgjsG1014" transform="translate(326,131.47777313476416)"><path id="SvgjsPath1015" d="M 0 0L 540 0L 540 424L 0 424Z" stroke="none" fill="url(#SvgjsPattern1016)" opacity="1"></path></g><g id="SvgjsG1018" transform="translate(448,25)"><path id="SvgjsPath1019" d="M 0 0L 240 0L 240 84L 0 84Z" stroke="rgba(50,50,50,1)" stroke-width="2" fill-opacity="1" fill="#64b5f6"></path><g id="SvgjsG1020"><text id="SvgjsText1021" font-family="微软雅黑" text-anchor="middle" font-size="25px" width="220px" fill="#323232" font-weight="400" align="middle" lineHeight="125%" anchor="middle" family="微软雅黑" size="25px" weight="400" font-style="" opacity="1" y="20.375" transform="rotate(0)"><tspan id="SvgjsTspan1022" dy="31" x="120"><tspan id="SvgjsTspan1023" style="text-decoration:;">activator</tspan></tspan></text></g></g><g id="SvgjsG1024" transform="translate(25,310.71665970214633)"><path id="SvgjsPath1025" d="M 0 0L 143 0L 143 57.56668059570734L 0 57.56668059570734Z" stroke-dasharray="10,6" stroke="rgba(158,158,158,1)" stroke-width="2" fill-opacity="1" fill="#ffffff"></path><g id="SvgjsG1026"><text id="SvgjsText1027" font-family="微软雅黑" text-anchor="middle" font-size="24px" width="123px" fill="#323232" font-weight="400" align="middle" lineHeight="125%" anchor="middle" family="微软雅黑" size="24px" weight="400" font-style="" opacity="1" y="7.78334029785367" transform="rotate(0)"><tspan id="SvgjsTspan1028" dy="30" x="71.5"><tspan id="SvgjsTspan1029" style="text-decoration:;">istio route</tspan></tspan></text></g></g><g id="SvgjsG1030" transform="translate(515,626.9555462695284)"><path id="SvgjsPath1031" d="M 0 0L 151 0L 151 78.04445373047156L 0 78.04445373047156Z" stroke="rgba(50,50,50,1)" stroke-width="2" fill-opacity="1" fill="#e1bee7"></path><g id="SvgjsG1032"><text id="SvgjsText1033" font-family="微软雅黑" text-anchor="middle" font-size="25px" width="131px" fill="#323232" font-weight="400" align="middle" lineHeight="125%" anchor="middle" family="微软雅黑" size="25px" weight="400" font-style="" opacity="1" y="17.39722686523578" transform="rotate(0)"><tspan id="SvgjsTspan1034" dy="31" x="75.5"><tspan id="SvgjsTspan1035" style="text-decoration:;">autoscale</tspan></tspan></text></g></g><g id="SvgjsG1036" transform="translate(999,369.5)"><path id="SvgjsPath1037" d="M 0 0L 169 0L 169 65.04445373047156L 0 65.04445373047156Z" stroke="rgba(50,50,50,1)" stroke-width="2" fill-opacity="1" fill="#64b5f6"></path><g id="SvgjsG1038"><text id="SvgjsText1039" font-family="微软雅黑" text-anchor="middle" font-size="24px" width="149px" fill="#323232" font-weight="400" align="middle" lineHeight="125%" anchor="middle" family="微软雅黑" size="24px" weight="400" font-style="" opacity="1" y="11.52222686523578" transform="rotate(0)"><tspan id="SvgjsTspan1040" dy="30" x="84.5"><tspan id="SvgjsTspan1041" style="text-decoration:;">deployment</tspan></tspan></text></g></g><g id="SvgjsG1042" transform="translate(1216,375.45554626952844)"><path id="SvgjsPath1043" d="M 0 0L 108 0L 108 55.04445373047156L 0 55.04445373047156Z" stroke="rgba(50,50,50,1)" stroke-width="2" fill-opacity="1" fill="#ffffff"></path><g id="SvgjsG1044"><text id="SvgjsText1045" font-family="微软雅黑" text-anchor="middle" font-size="20px" width="88px" fill="#323232" font-weight="400" align="middle" lineHeight="125%" anchor="middle" family="微软雅黑" size="20px" weight="400" font-style="" opacity="1" y="9.52222686523578" transform="rotate(0)"><tspan id="SvgjsTspan1046" dy="25" x="54"><tspan id="SvgjsTspan1047" style="text-decoration:;">Pod</tspan></tspan></text></g></g><g id="SvgjsG1048" transform="translate(1228.3931623931626,383.45554626952844)"><path id="SvgjsPath1049" d="M 0 0L 108 0L 108 55.04445373047156L 0 55.04445373047156Z" stroke="rgba(50,50,50,1)" stroke-width="2" fill-opacity="1" fill="#ffffff"></path><g id="SvgjsG1050"><text id="SvgjsText1051" font-family="微软雅黑" text-anchor="middle" font-size="20px" width="88px" fill="#323232" font-weight="400" align="middle" lineHeight="125%" anchor="middle" family="微软雅黑" size="20px" weight="400" font-style="" opacity="1" y="9.52222686523578" transform="rotate(0)"><tspan id="SvgjsTspan1052" dy="25" x="54"><tspan id="SvgjsTspan1053" style="text-decoration:;">Pod</tspan></tspan></text></g></g><g id="SvgjsG1054" transform="translate(1238.700854700855,394.45554626952844)"><path id="SvgjsPath1055" d="M 0 0L 108 0L 108 55.04445373047156L 0 55.04445373047156Z" stroke="rgba(50,50,50,1)" stroke-width="2" fill-opacity="1" fill="#ffffff"></path><g id="SvgjsG1056"><text id="SvgjsText1057" font-family="微软雅黑" text-anchor="middle" font-size="20px" width="88px" fill="#323232" font-weight="400" align="middle" lineHeight="125%" anchor="middle" family="微软雅黑" size="20px" weight="400" font-style="" opacity="1" y="9.52222686523578" transform="rotate(0)"><tspan id="SvgjsTspan1058" dy="25" x="54"><tspan id="SvgjsTspan1059" style="text-decoration:;">Pod</tspan></tspan></text></g></g><g id="SvgjsG1060" transform="translate(885.5,381.5222268652358)"><path id="SvgjsPath1061" d="M 0 14.160660537888772L 73.04445373047156 14.160660537888772L 73.04445373047156 0L 94.5 21.45554626952844L 73.04445373047156 42.91109253905688L 73.04445373047156 28.75043200116811L 0 28.75043200116811L 0 14.160660537888772Z" stroke="rgba(50,50,50,1)" stroke-width="2" fill-opacity="1" fill="#4dd0e1"></path><g id="SvgjsG1062"><text id="SvgjsText1063" font-family="微软雅黑" text-anchor="middle" font-size="13px" width="95px" fill="#323232" font-weight="400" align="middle" lineHeight="125%" anchor="middle" family="微软雅黑" size="13px" weight="400" font-style="" opacity="1" y="10.830546269528442" transform="rotate(0)"></text></g></g><g id="SvgjsG1064" transform="translate(174,320.5)"><path id="SvgjsPath1065" d="M 0 12.540000000000001L 112 12.540000000000001L 112 0L 131 19L 112 38L 112 25.46L 0 25.46L 0 12.540000000000001Z" stroke="rgba(50,50,50,1)" stroke-width="2" fill-opacity="1" fill="#4dd0e1"></path><g id="SvgjsG1066"><text id="SvgjsText1067" font-family="微软雅黑" text-anchor="middle" font-size="13px" width="131px" fill="#323232" font-weight="400" align="middle" lineHeight="125%" anchor="middle" family="微软雅黑" size="13px" weight="400" font-style="" opacity="1" y="8.375000000000002" transform="rotate(0)"></text></g></g><g id="SvgjsG1068"><path id="SvgjsPath1069" d="M96.5 309.71665970214633L96.5 67L444.4 67" stroke="#323232" stroke-width="2" fill="none" marker-end="url(#SvgjsMarker1070)"></path></g><g id="SvgjsG1072"><path id="SvgjsPath1073" d="M96.5 369.28334029785367L96.5 665.9777731347642L511.4 665.9777731347642" stroke="#323232" stroke-width="2" fill="none" marker-end="url(#SvgjsMarker1074)"></path></g><g id="SvgjsG1076"><path id="SvgjsPath1077" d="M667 665.9777731347642L1083.5 665.9777731347642L1083.5 438.1444537304716" stroke="#323232" stroke-width="2" fill="none" marker-end="url(#SvgjsMarker1078)"></path></g><g id="SvgjsG1080"><path id="SvgjsPath1081" d="M689 67L1282.3931623931626 67L1282.3931623931626 379.8555462695284" stroke="#323232" stroke-width="2" fill="none" marker-end="url(#SvgjsMarker1082)"></path></g><g id="SvgjsG1084"><path id="SvgjsPath1085" d="M1169 402.0222268652358L1192 402.0222268652358L1192 402.0222268652358L1212.4 402.0222268652358" stroke="#323232" stroke-width="2" fill="none" marker-end="url(#SvgjsMarker1086)"></path></g></svg>